<?xml version="1.0" encoding="UTF-8"?>
<!DOCTYPE X3D PUBLIC "ISO//Web3D//DTD X3D 3.3//EN" "http://www.web3d.org/specifications/x3d-3.3.dtd">
<X3D profile='Interchange' version='3.3' xmlns:xsd='http://www.w3.org/2001/XMLSchema-instance' xsd:noNamespaceSchemaLocation='http://www.web3d.org/specifications/x3d-3.3.xsd'>
	<head>
	<!-- All "meta" from this section tou will found in <Scene> node as MetadataString nodes. -->
	</head>
	<Scene>
		<Group>
			<Shape DEF='_IDX_0'>
				<Appearance DEF='Material_1_IDX_1'>
					<Material diffuseColor='0.536574 0.733311 0.420508'/>
					
				</Appearance>
				<IndexedFaceSet solid="false" coordIndex='0 1 2 3 -1'>
					<Coordinate point='0.378667 0.000000 0.160000 0.376869 -0.060374 0.154548 0.000000 0.000000 0.000000 0.000000 0.000000 0.000000'/>
				</IndexedFaceSet>
			</Shape>
			<Shape DEF='_IDX_1'>
				<Appearance DEF='Material_2_IDX_2'>
					<Material diffuseColor='0.629924 0.743460 0.344998'/>
					
				</Appearance>
				<IndexedFaceSet solid="false" coordIndex='0 1 2 3 -1'>
					<Coordinate point='0.629333 0.000000 0.640000 0.635480 -0.169732 0.618193 0.376869 -0.060374 0.154548 0.378667 0.000000 0.160000'/>
				</IndexedFaceSet>
			</Shape>
			<Shape DEF='_IDX_2'>
				<Appearance DEF='Material_3_IDX_3'>
					<Material diffuseColor='0.807971 0.711351 0.256106'/>
					
				</Appearance>
				<IndexedFaceSet solid="false" coordIndex='0 1 2 3 -1'>
					<Coordinate point='0.624000 0.000000 1.440000 0.657579 -0.377057 1.390933 0.635480 -0.169732 0.618193 0.629333 0.000000 0.640000'/>
				</IndexedFaceSet>
			</Shape>
			<Shape DEF='_IDX_3'>
				<Appearance DEF='Material_4_IDX_4'>
					<Material diffuseColor='0.899301 0.430893 0.187488'/>
					
				</Appearance>
				<IndexedFaceSet solid="false" coordIndex='0 1 2 3 -1'>
					<Coordinate point='0.234667 0.000000 2.560000 0.324908 -0.731332 2.472770 0.657579 -0.377057 1.390933 0.624000 0.000000 1.440000'/>
				</IndexedFaceSet>
			</Shape>
			<Shape DEF='_IDX_4'>
				<Appearance DEF='Material_5_IDX_5'>
					<Material diffuseColor='0.534996 0.733080 0.421883'/>
					
				</Appearance>
				<IndexedFaceSet solid="false" coordIndex='0 1 2 3 -1'>
					<Coordinate point='0.376869 -0.060374 0.154548 0.371285 -0.118613 0.138564 0.000000 0.000000 0.000000 0.000000 0.000000 0.000000'/>
				</IndexedFaceSet>
			</Shape>
			<Shape DEF='_IDX_5'>
				<Appearance DEF='Material_6_IDX_6'>
					<Material diffuseColor='0.621769 0.743555 0.349974'/>
					
				</Appearance>
				<IndexedFaceSet solid="false" coordIndex='0 1 2 3 -1'>
					<Coordinate point='0.635480 -0.169732 0.618193 0.652061 -0.327735 0.554256 0.371285 -0.118613 0.138564 0.376869 -0.060374 0.154548'/>
				</IndexedFaceSet>
			</Shape>
			<Shape DEF='_IDX_6'>
				<Appearance DEF='Material_7_IDX_7'>
					<Material diffuseColor='0.792483 0.721653 0.261714'/>
					
				</Appearance>
				<IndexedFaceSet solid="false" coordIndex='0 1 2 3 -1'>
					<Coordinate point='0.657579 -0.377057 1.390933 0.751817 -0.717876 1.247077 0.652061 -0.327735 0.554256 0.635480 -0.169732 0.618193'/>
				</IndexedFaceSet>
			</Shape>
			<Shape DEF='_IDX_7'>
				<Appearance DEF='Material_8_IDX_8'>
					<Material diffuseColor='0.902347 0.489421 0.198763'/>
					
				</Appearance>
				<IndexedFaceSet solid="false" coordIndex='0 1 2 3 -1'>
					<Coordinate point='0.324908 -0.731332 2.472770 0.580045 -1.379547 2.217025 0.751817 -0.717876 1.247077 0.657579 -0.377057 1.390933'/>
				</IndexedFaceSet>
			</Shape>
			<Shape DEF='_IDX_8'>
				<Appearance DEF='Material_9_IDX_9'>
					<Material diffuseColor='0.531947 0.732633 0.424539'/>
					
				</Appearance>
				<IndexedFaceSet solid="false" coordIndex='0 1 2 3 -1'>
					<Coordinate point='0.371285 -0.118613 0.138564 0.361388 -0.172783 0.113137 0.000000 0.000000 0.000000 0.000000 0.000000 0.000000'/>
				</IndexedFaceSet>
			</Shape>
			<Shape DEF='_IDX_9'>
				<Appearance DEF='Material_10_IDX_10'>
					<Material diffuseColor='0.606069 0.743486 0.359967'/>
					
				</Appearance>
				<IndexedFaceSet solid="false" coordIndex='0 1 2 3 -1'>
					<Coordinate point='0.652061 -0.327735 0.554256 0.673792 -0.463822 0.452548 0.361388 -0.172783 0.113137 0.371285 -0.118613 0.138564'/>
				</IndexedFaceSet>
			</Shape>
			<Shape DEF='_IDX_10'>
				<Appearance DEF='Material_11_IDX_11'>
					<Material diffuseColor='0.754837 0.730667 0.277838'/>
					
				</Appearance>
				<IndexedFaceSet solid="false" coordIndex='0 1 2 3 -1'>
					<Coordinate point='0.751817 -0.717876 1.247077 0.888230 -0.991375 1.018234 0.673792 -0.463822 0.452548 0.652061 -0.327735 0.554256'/>
				</IndexedFaceSet>
			</Shape>
			<Shape DEF='_IDX_11'>
				<Appearance DEF='Material_12_IDX_12'>
					<Material diffuseColor='0.897865 0.590210 0.218223'/>
					
				</Appearance>
				<IndexedFaceSet solid="false" coordIndex='0 1 2 3 -1'>
					<Coordinate point='0.580045 -1.379547 2.217025 0.955717 -1.873697 1.810193 0.888230 -0.991375 1.018234 0.751817 -0.717876 1.247077'/>
				</IndexedFaceSet>
			</Shape>
			<Shape DEF='_IDX_12'>
				<Appearance DEF='Material_13_IDX_13'>
					<Material diffuseColor='0.527636 0.732002 0.428295'/>
					
				</Appearance>
				<IndexedFaceSet solid="false" coordIndex='0 1 2 3 -1'>
					<Coordinate point='0.361388 -0.172783 0.113137 0.346410 -0.221333 0.080000 0.000000 0.000000 0.000000 0.000000 0.000000 0.000000'/>
				</IndexedFaceSet>
			</Shape>
			<Shape DEF='_IDX_13'>
				<Appearance DEF='Material_14_IDX_14'>
					<Material diffuseColor='0.584511 0.740330 0.378747'/>
					
				</Appearance>
				<IndexedFaceSet solid="false" coordIndex='0 1 2 3 -1'>
					<Coordinate point='0.673792 -0.463822 0.452548 0.692820 -0.570667 0.320000 0.346410 -0.221333 0.080000 0.361388 -0.172783 0.113137'/>
				</IndexedFaceSet>
			</Shape>
			<Shape DEF='_IDX_14'>
				<Appearance DEF='Material_15_IDX_15'>
					<Material diffuseColor='0.701293 0.742634 0.301452'/>
					
				</Appearance>
				<IndexedFaceSet solid="false" coordIndex='0 1 2 3 -1'>
					<Coordinate point='0.888230 -0.991375 1.018234 1.039230 -1.176000 0.720000 0.692820 -0.570667 0.320000 0.673792 -0.463822 0.452548'/>
				</IndexedFaceSet>
			</Shape>
			<Shape DEF='_IDX_15'>
				<Appearance DEF='Material_16_IDX_16'>
					<Material diffuseColor='0.847803 0.682249 0.242091'/>
					
				</Appearance>
				<IndexedFaceSet solid="false" coordIndex='0 1 2 3 -1'>
					<Coordinate point='0.955717 -1.873697 1.810193 1.385641 -2.165333 1.280000 1.039230 -1.176000 0.720000 0.888230 -0.991375 1.018234'/>
				</IndexedFaceSet>
			</Shape>
			<Shape DEF='_IDX_16'>
				<Appearance DEF='Material_17_IDX_17'>
					<Material diffuseColor='0.522355 0.731229 0.432895'/>
					
				</Appearance>
				<IndexedFaceSet solid="false" coordIndex='0 1 2 3 -1'>
					<Coordinate point='0.346410 -0.221333 0.080000 0.325505 -0.263214 0.041411 0.000000 0.000000 0.000000 0.000000 0.000000 0.000000'/>
				</IndexedFaceSet>
			</Shape>
			<Shape DEF='_IDX_17'>
				<Appearance DEF='Material_18_IDX_18'>
					<Material diffuseColor='0.558109 0.736464 0.401748'/>
					
				</Appearance>
				<IndexedFaceSet solid="false" coordIndex='0 1 2 3 -1'>
					<Coordinate point='0.692820 -0.570667 0.320000 0.699994 -0.644685 0.165644 0.325505 -0.263214 0.041411 0.346410 -0.221333 0.080000'/>
				</IndexedFaceSet>
			</Shape>
			<Shape DEF='_IDX_18'>
				<Appearance DEF='Material_19_IDX_19'>
					<Material diffuseColor='0.630350 0.743455 0.344738'/>
					
				</Appearance>
				<IndexedFaceSet solid="false" coordIndex='0 1 2 3 -1'>
					<Coordinate point='1.039230 -1.176000 0.720000 1.172450 -1.262668 0.372699 0.699994 -0.644685 0.165644 0.692820 -0.570667 0.320000'/>
				</IndexedFaceSet>
			</Shape>
			<Shape DEF='_IDX_19'>
				<Appearance DEF='Material_20_IDX_20'>
					<Material diffuseColor='0.738274 0.734633 0.284932'/>
					
				</Appearance>
				<IndexedFaceSet solid="false" coordIndex='0 1 2 3 -1'>
					<Coordinate point='1.385641 -2.165333 1.280000 1.791856 -2.235422 0.662577 1.172450 -1.262668 0.372699 1.039230 -1.176000 0.720000'/>
				</IndexedFaceSet>
			</Shape>
			<Shape DEF='_IDX_20'>
				<Appearance DEF='Material_21_IDX_21'>
					<Material diffuseColor='0.516466 0.730366 0.438026'/>
					
				</Appearance>
				<IndexedFaceSet solid="false" coordIndex='0 1 2 3 -1'>
					<Coordinate point='0.325505 -0.263214 0.041411 0.297928 -0.297928 0.000000 0.000000 0.000000 0.000000 0.000000 0.000000 0.000000'/>
				</IndexedFaceSet>
			</Shape>
			<Shape DEF='_IDX_21'>
				<Appearance DEF='Material_22_IDX_22'>
					<Material diffuseColor='0.528660 0.732152 0.427402'/>
					
				</Appearance>
				<IndexedFaceSet solid="false" coordIndex='0 1 2 3 -1'>
					<Coordinate point='0.699994 -0.644685 0.165644 0.686365 -0.686365 0.000000 0.297928 -0.297928 0.000000 0.325505 -0.263214 0.041411'/>
				</IndexedFaceSet>
			</Shape>
			<Shape DEF='_IDX_22'>
				<Appearance DEF='Material_23_IDX_23'>
					<Material diffuseColor='0.553050 0.735723 0.406155'/>
					
				</Appearance>
				<IndexedFaceSet solid="false" coordIndex='0 1 2 3 -1'>
					<Coordinate point='1.172450 -1.262668 0.372699 1.255822 -1.255822 0.000000 0.686365 -0.686365 0.000000 0.699994 -0.644685 0.165644'/>
				</IndexedFaceSet>
			</Shape>
			<Shape DEF='_IDX_23'>
				<Appearance DEF='Material_24_IDX_24'>
					<Material diffuseColor='0.589634 0.741080 0.374284'/>
					
				</Appearance>
				<IndexedFaceSet solid="false" coordIndex='0 1 2 3 -1'>
					<Coordinate point='1.791856 -2.235422 0.662577 2.096807 -2.096807 0.000000 1.255822 -1.255822 0.000000 1.172450 -1.262668 0.372699'/>
				</IndexedFaceSet>
			</Shape>
			<Shape DEF='_IDX_24'>
				<Appearance DEF='Material_25_IDX_25'>
					<Material diffuseColor='0.259387 0.209914 0.754128'/>
					
				</Appearance>
				<IndexedFaceSet solid="false" coordIndex='0 1 2 3 -1'>
					<Coordinate point='0.000000 -0.624000 -1.440000 0.377057 -0.657579 -1.390933 0.731332 -0.324908 -2.472770 0.000000 -0.234667 -2.560000'/>
				</IndexedFaceSet>
			</Shape>
			<Shape DEF='_IDX_25'>
				<Appearance DEF='Material_26_IDX_26'>
					<Material diffuseColor='0.298173 0.566324 0.751901'/>
					
				</Appearance>
				<IndexedFaceSet solid="false" coordIndex='0 1 2 3 -1'>
					<Coordinate point='0.000000 -0.629333 -0.640000 0.169732 -0.635480 -0.618193 0.377057 -0.657579 -1.390933 0.000000 -0.624000 -1.440000'/>
				</IndexedFaceSet>
			</Shape>
			<Shape DEF='_IDX_26'>
				<Appearance DEF='Material_27_IDX_27'>
					<Material diffuseColor='0.413979 0.691308 0.564420'/>
					
				</Appearance>
				<IndexedFaceSet solid="false" coordIndex='0 1 2 3 -1'>
					<Coordinate point='0.000000 -0.378667 -0.160000 0.060374 -0.376869 -0.154548 0.169732 -0.635480 -0.618193 0.000000 -0.629333 -0.640000'/>
				</IndexedFaceSet>
			</Shape>
			<Shape DEF='_IDX_27'>
				<Appearance DEF='Material_28_IDX_28'>
					<Material diffuseColor='0.492879 0.723022 0.465167'/>
					
				</Appearance>
				<IndexedFaceSet solid="false" coordIndex='0 1 2 3 -1'>
					<Coordinate point='0.000000 0.000000 0.000000 0.000000 0.000000 0.000000 0.060374 -0.376869 -0.154548 0.000000 -0.378667 -0.160000'/>
				</IndexedFaceSet>
			</Shape>
			<Shape DEF='_IDX_28'>
				<Appearance DEF='Material_29_IDX_29'>
					<Material diffuseColor='0.248899 0.262767 0.782065'/>
					
				</Appearance>
				<IndexedFaceSet solid="false" coordIndex='0 1 2 3 -1'>
					<Coordinate point='0.377057 -0.657579 -1.390933 0.717876 -0.751817 -1.247077 1.379547 -0.580045 -2.217025 0.731332 -0.324908 -2.472770'/>
				</IndexedFaceSet>
			</Shape>
			<Shape DEF='_IDX_29'>
				<Appearance DEF='Material_30_IDX_30'>
					<Material diffuseColor='0.307178 0.587195 0.737497'/>
					
				</Appearance>
				<IndexedFaceSet solid="false" coordIndex='0 1 2 3 -1'>
					<Coordinate point='0.169732 -0.635480 -0.618193 0.327735 -0.652061 -0.554256 0.717876 -0.751817 -1.247077 0.377057 -0.657579 -1.390933'/>
				</IndexedFaceSet>
			</Shape>
			<Shape DEF='_IDX_30'>
				<Appearance DEF='Material_31_IDX_31'>
					<Material diffuseColor='0.419787 0.695167 0.555597'/>
					
				</Appearance>
				<IndexedFaceSet solid="false" coordIndex='0 1 2 3 -1'>
					<Coordinate point='0.060374 -0.376869 -0.154548 0.118613 -0.371285 -0.138564 0.327735 -0.652061 -0.554256 0.169732 -0.635480 -0.618193'/>
				</IndexedFaceSet>
			</Shape>
			<Shape DEF='_IDX_31'>
				<Appearance DEF='Material_32_IDX_32'>
					<Material diffuseColor='0.494279 0.723492 0.463499'/>
					
				</Appearance>
				<IndexedFaceSet solid="false" coordIndex='0 1 2 3 -1'>
					<Coordinate point='0.000000 0.000000 0.000000 0.000000 0.000000 0.000000 0.118613 -0.371285 -0.138564 0.060374 -0.376869 -0.154548'/>
				</IndexedFaceSet>
			</Shape>
			<Shape DEF='_IDX_32'>
				<Appearance DEF='Material_33_IDX_33'>
					<Material diffuseColor='0.245931 0.371773 0.814946'/>
					
				</Appearance>
				<IndexedFaceSet solid="false" coordIndex='0 1 2 3 -1'>
					<Coordinate point='0.717876 -0.751817 -1.247077 0.991375 -0.888230 -1.018234 1.873697 -0.955717 -1.810193 1.379547 -0.580045 -2.217025'/>
				</IndexedFaceSet>
			</Shape>
			<Shape DEF='_IDX_33'>
				<Appearance DEF='Material_34_IDX_34'>
					<Material diffuseColor='0.330126 0.616713 0.697973'/>
					
				</Appearance>
				<IndexedFaceSet solid="false" coordIndex='0 1 2 3 -1'>
					<Coordinate point='0.327735 -0.652061 -0.554256 0.463822 -0.673792 -0.452548 0.991375 -0.888230 -1.018234 0.717876 -0.751817 -1.247077'/>
				</IndexedFaceSet>
			</Shape>
			<Shape DEF='_IDX_34'>
				<Appearance DEF='Material_35_IDX_35'>
					<Material diffuseColor='0.431245 0.702320 0.538648'/>
					
				</Appearance>
				<IndexedFaceSet solid="false" coordIndex='0 1 2 3 -1'>
					<Coordinate point='0.118613 -0.371285 -0.138564 0.172783 -0.361388 -0.113137 0.463822 -0.673792 -0.452548 0.327735 -0.652061 -0.554256'/>
				</IndexedFaceSet>
			</Shape>
			<Shape DEF='_IDX_35'>
				<Appearance DEF='Material_36_IDX_36'>
					<Material diffuseColor='0.496983 0.724400 0.460275'/>
					
				</Appearance>
				<IndexedFaceSet solid="false" coordIndex='0 1 2 3 -1'>
					<Coordinate point='0.000000 0.000000 0.000000 0.000000 0.000000 0.000000 0.172783 -0.361388 -0.113137 0.118613 -0.371285 -0.138564'/>
				</IndexedFaceSet>
			</Shape>
			<Shape DEF='_IDX_36'>
				<Appearance DEF='Material_37_IDX_37'>
					<Material diffuseColor='0.275187 0.509195 0.788209'/>
					
				</Appearance>
				<IndexedFaceSet solid="false" coordIndex='0 1 2 3 -1'>
					<Coordinate point='0.991375 -0.888230 -1.018234 1.176000 -1.039230 -0.720000 2.165333 -1.385641 -1.280000 1.873697 -0.955717 -1.810193'/>
				</IndexedFaceSet>
			</Shape>
			<Shape DEF='_IDX_37'>
				<Appearance DEF='Material_38_IDX_38'>
					<Material diffuseColor='0.363147 0.657531 0.641640'/>
					
				</Appearance>
				<IndexedFaceSet solid="false" coordIndex='0 1 2 3 -1'>
					<Coordinate point='0.463822 -0.673792 -0.452548 0.570667 -0.692820 -0.320000 1.176000 -1.039230 -0.720000 0.991375 -0.888230 -1.018234'/>
				</IndexedFaceSet>
			</Shape>
			<Shape DEF='_IDX_38'>
				<Appearance DEF='Material_39_IDX_39'>
					<Material diffuseColor='0.450365 0.708742 0.515854'/>
					
				</Appearance>
				<IndexedFaceSet solid="false" coordIndex='0 1 2 3 -1'>
					<Coordinate point='0.172783 -0.361388 -0.113137 0.221333 -0.346410 -0.080000 0.570667 -0.692820 -0.320000 0.463822 -0.673792 -0.452548'/>
				</IndexedFaceSet>
			</Shape>
			<Shape DEF='_IDX_39'>
				<Appearance DEF='Material_40_IDX_40'>
					<Material diffuseColor='0.500807 0.725684 0.455716'/>
					
				</Appearance>
				<IndexedFaceSet solid="false" coordIndex='0 1 2 3 -1'>
					<Coordinate point='0.000000 0.000000 0.000000 0.000000 0.000000 0.000000 0.221333 -0.346410 -0.080000 0.172783 -0.361388 -0.113137'/>
				</IndexedFaceSet>
			</Shape>
			<Shape DEF='_IDX_40'>
				<Appearance DEF='Material_41_IDX_41'>
					<Material diffuseColor='0.340221 0.629699 0.680585'/>
					
				</Appearance>
				<IndexedFaceSet solid="false" coordIndex='0 1 2 3 -1'>
					<Coordinate point='1.176000 -1.039230 -0.720000 1.262668 -1.172450 -0.372699 2.235422 -1.791856 -0.662577 2.165333 -1.385641 -1.280000'/>
				</IndexedFaceSet>
			</Shape>
			<Shape DEF='_IDX_41'>
				<Appearance DEF='Material_42_IDX_42'>
					<Material diffuseColor='0.413675 0.691106 0.564881'/>
					
				</Appearance>
				<IndexedFaceSet solid="false" coordIndex='0 1 2 3 -1'>
					<Coordinate point='0.570667 -0.692820 -0.320000 0.644685 -0.699994 -0.165644 1.262668 -1.172450 -0.372699 1.176000 -1.039230 -0.720000'/>
				</IndexedFaceSet>
			</Shape>
			<Shape DEF='_IDX_42'>
				<Appearance DEF='Material_43_IDX_43'>
					<Material diffuseColor='0.473781 0.716607 0.487937'/>
					
				</Appearance>
				<IndexedFaceSet solid="false" coordIndex='0 1 2 3 -1'>
					<Coordinate point='0.221333 -0.346410 -0.080000 0.263214 -0.325505 -0.041411 0.644685 -0.699994 -0.165644 0.570667 -0.692820 -0.320000'/>
				</IndexedFaceSet>
			</Shape>
			<Shape DEF='_IDX_43'>
				<Appearance DEF='Material_44_IDX_44'>
					<Material diffuseColor='0.505490 0.727257 0.450133'/>
					
				</Appearance>
				<IndexedFaceSet solid="false" coordIndex='0 1 2 3 -1'>
					<Coordinate point='0.000000 0.000000 0.000000 0.000000 0.000000 0.000000 0.263214 -0.325505 -0.041411 0.221333 -0.346410 -0.080000'/>
				</IndexedFaceSet>
			</Shape>
			<Shape DEF='_IDX_44'>
				<Appearance DEF='Material_45_IDX_45'>
					<Material diffuseColor='0.445821 0.707216 0.521271'/>
					
				</Appearance>
				<IndexedFaceSet solid="false" coordIndex='0 1 2 3 -1'>
					<Coordinate point='1.262668 -1.172450 -0.372699 1.255822 -1.255822 -0.000000 2.096807 -2.096807 -0.000000 2.235422 -1.791856 -0.662577'/>
				</IndexedFaceSet>
			</Shape>
			<Shape DEF='_IDX_45'>
				<Appearance DEF='Material_46_IDX_46'>
					<Material diffuseColor='0.478267 0.718114 0.482588'/>
					
				</Appearance>
				<IndexedFaceSet solid="false" coordIndex='0 1 2 3 -1'>
					<Coordinate point='0.644685 -0.699994 -0.165644 0.686365 -0.686365 -0.000000 1.255822 -1.255822 -0.000000 1.262668 -1.172450 -0.372699'/>
				</IndexedFaceSet>
			</Shape>
			<Shape DEF='_IDX_46'>
				<Appearance DEF='Material_47_IDX_47'>
					<Material diffuseColor='0.499898 0.725379 0.456800'/>
					
				</Appearance>
				<IndexedFaceSet solid="false" coordIndex='0 1 2 3 -1'>
					<Coordinate point='0.263214 -0.325505 -0.041411 0.297928 -0.297928 -0.000000 0.686365 -0.686365 -0.000000 0.644685 -0.699994 -0.165644'/>
				</IndexedFaceSet>
			</Shape>
			<Shape DEF='_IDX_47'>
				<Appearance DEF='Material_48_IDX_48'>
					<Material diffuseColor='0.510713 0.729012 0.443906'/>
					
				</Appearance>
				<IndexedFaceSet solid="false" coordIndex='0 1 2 3 -1'>
					<Coordinate point='0.000000 0.000000 0.000000 0.000000 0.000000 0.000000 0.297928 -0.297928 -0.000000 0.263214 -0.325505 -0.041411'/>
				</IndexedFaceSet>
			</Shape>
			<Shape DEF='_IDX_48'>
				<Appearance USE='Material_4_IDX_4'/>
				<IndexedFaceSet solid="false" coordIndex='0 1 2 3 -1'>
					<Coordinate point='0.624000 0.000000 1.440000 0.657579 0.377057 1.390933 0.324908 0.731332 2.472770 0.234667 0.000000 2.560000'/>
				</IndexedFaceSet>
			</Shape>
			<Shape DEF='_IDX_49'>
				<Appearance USE='Material_3_IDX_3'/>
				<IndexedFaceSet solid="false" coordIndex='0 1 2 3 -1'>
					<Coordinate point='0.629333 0.000000 0.640000 0.635480 0.169732 0.618193 0.657579 0.377057 1.390933 0.624000 0.000000 1.440000'/>
				</IndexedFaceSet>
			</Shape>
			<Shape DEF='_IDX_50'>
				<Appearance USE='Material_2_IDX_2'/>
				<IndexedFaceSet solid="false" coordIndex='0 1 2 3 -1'>
					<Coordinate point='0.378667 0.000000 0.160000 0.376869 0.060374 0.154548 0.635480 0.169732 0.618193 0.629333 0.000000 0.640000'/>
				</IndexedFaceSet>
			</Shape>
			<Shape DEF='_IDX_51'>
				<Appearance USE='Material_1_IDX_1'/>
				<IndexedFaceSet solid="false" coordIndex='0 1 2 3 -1'>
					<Coordinate point='0.000000 0.000000 0.000000 0.000000 0.000000 0.000000 0.376869 0.060374 0.154548 0.378667 0.000000 0.160000'/>
				</IndexedFaceSet>
			</Shape>
			<Shape DEF='_IDX_52'>
				<Appearance USE='Material_8_IDX_8'/>
				<IndexedFaceSet solid="false" coordIndex='0 1 2 3 -1'>
					<Coordinate point='0.657579 0.377057 1.390933 0.751817 0.717876 1.247077 0.580045 1.379547 2.217025 0.324908 0.731332 2.472770'/>
				</IndexedFaceSet>
			</Shape>
			<Shape DEF='_IDX_53'>
				<Appearance USE='Material_7_IDX_7'/>
				<IndexedFaceSet solid="false" coordIndex='0 1 2 3 -1'>
					<Coordinate point='0.635480 0.169732 0.618193 0.652061 0.327735 0.554256 0.751817 0.717876 1.247077 0.657579 0.377057 1.390933'/>
				</IndexedFaceSet>
			</Shape>
			<Shape DEF='_IDX_54'>
				<Appearance USE='Material_6_IDX_6'/>
				<IndexedFaceSet solid="false" coordIndex='0 1 2 3 -1'>
					<Coordinate point='0.376869 0.060374 0.154548 0.371285 0.118613 0.138564 0.652061 0.327735 0.554256 0.635480 0.169732 0.618193'/>
				</IndexedFaceSet>
			</Shape>
			<Shape DEF='_IDX_55'>
				<Appearance USE='Material_5_IDX_5'/>
				<IndexedFaceSet solid="false" coordIndex='0 1 2 3 -1'>
					<Coordinate point='0.000000 0.000000 0.000000 0.000000 0.000000 0.000000 0.371285 0.118613 0.138564 0.376869 0.060374 0.154548'/>
				</IndexedFaceSet>
			</Shape>
			<Shape DEF='_IDX_56'>
				<Appearance USE='Material_12_IDX_12'/>
				<IndexedFaceSet solid="false" coordIndex='0 1 2 3 -1'>
					<Coordinate point='0.751817 0.717876 1.247077 0.888230 0.991375 1.018234 0.955717 1.873697 1.810193 0.580045 1.379547 2.217025'/>
				</IndexedFaceSet>
			</Shape>
			<Shape DEF='_IDX_57'>
				<Appearance USE='Material_11_IDX_11'/>
				<IndexedFaceSet solid="false" coordIndex='0 1 2 3 -1'>
					<Coordinate point='0.652061 0.327735 0.554256 0.673792 0.463822 0.452548 0.888230 0.991375 1.018234 0.751817 0.717876 1.247077'/>
				</IndexedFaceSet>
			</Shape>
			<Shape DEF='_IDX_58'>
				<Appearance USE='Material_10_IDX_10'/>
				<IndexedFaceSet solid="false" coordIndex='0 1 2 3 -1'>
					<Coordinate point='0.371285 0.118613 0.138564 0.361388 0.172783 0.113137 0.673792 0.463822 0.452548 0.652061 0.327735 0.554256'/>
				</IndexedFaceSet>
			</Shape>
			<Shape DEF='_IDX_59'>
				<Appearance USE='Material_9_IDX_9'/>
				<IndexedFaceSet solid="false" coordIndex='0 1 2 3 -1'>
					<Coordinate point='0.000000 0.000000 0.000000 0.000000 0.000000 0.000000 0.361388 0.172783 0.113137 0.371285 0.118613 0.138564'/>
				</IndexedFaceSet>
			</Shape>
			<Shape DEF='_IDX_60'>
				<Appearance USE='Material_16_IDX_16'/>
				<IndexedFaceSet solid="false" coordIndex='0 1 2 3 -1'>
					<Coordinate point='0.888230 0.991375 1.018234 1.039230 1.176000 0.720000 1.385641 2.165333 1.280000 0.955717 1.873697 1.810193'/>
				</IndexedFaceSet>
			</Shape>
			<Shape DEF='_IDX_61'>
				<Appearance USE='Material_15_IDX_15'/>
				<IndexedFaceSet solid="false" coordIndex='0 1 2 3 -1'>
					<Coordinate point='0.673792 0.463822 0.452548 0.692820 0.570667 0.320000 1.039230 1.176000 0.720000 0.888230 0.991375 1.018234'/>
				</IndexedFaceSet>
			</Shape>
			<Shape DEF='_IDX_62'>
				<Appearance USE='Material_14_IDX_14'/>
				<IndexedFaceSet solid="false" coordIndex='0 1 2 3 -1'>
					<Coordinate point='0.361388 0.172783 0.113137 0.346410 0.221333 0.080000 0.692820 0.570667 0.320000 0.673792 0.463822 0.452548'/>
				</IndexedFaceSet>
			</Shape>
			<Shape DEF='_IDX_63'>
				<Appearance USE='Material_13_IDX_13'/>
				<IndexedFaceSet solid="false" coordIndex='0 1 2 3 -1'>
					<Coordinate point='0.000000 0.000000 0.000000 0.000000 0.000000 0.000000 0.346410 0.221333 0.080000 0.361388 0.172783 0.113137'/>
				</IndexedFaceSet>
			</Shape>
			<Shape DEF='_IDX_64'>
				<Appearance USE='Material_20_IDX_20'/>
				<IndexedFaceSet solid="false" coordIndex='0 1 2 3 -1'>
					<Coordinate point='1.039230 1.176000 0.720000 1.172450 1.262668 0.372699 1.791856 2.235422 0.662577 1.385641 2.165333 1.280000'/>
				</IndexedFaceSet>
			</Shape>
			<Shape DEF='_IDX_65'>
				<Appearance USE='Material_19_IDX_19'/>
				<IndexedFaceSet solid="false" coordIndex='0 1 2 3 -1'>
					<Coordinate point='0.692820 0.570667 0.320000 0.699994 0.644685 0.165644 1.172450 1.262668 0.372699 1.039230 1.176000 0.720000'/>
				</IndexedFaceSet>
			</Shape>
			<Shape DEF='_IDX_66'>
				<Appearance USE='Material_18_IDX_18'/>
				<IndexedFaceSet solid="false" coordIndex='0 1 2 3 -1'>
					<Coordinate point='0.346410 0.221333 0.080000 0.325505 0.263214 0.041411 0.699994 0.644685 0.165644 0.692820 0.570667 0.320000'/>
				</IndexedFaceSet>
			</Shape>
			<Shape DEF='_IDX_67'>
				<Appearance USE='Material_17_IDX_17'/>
				<IndexedFaceSet solid="false" coordIndex='0 1 2 3 -1'>
					<Coordinate point='0.000000 0.000000 0.000000 0.000000 0.000000 0.000000 0.325505 0.263214 0.041411 0.346410 0.221333 0.080000'/>
				</IndexedFaceSet>
			</Shape>
			<Shape DEF='_IDX_68'>
				<Appearance USE='Material_24_IDX_24'/>
				<IndexedFaceSet solid="false" coordIndex='0 1 2 3 -1'>
					<Coordinate point='1.172450 1.262668 0.372699 1.255822 1.255822 0.000000 2.096807 2.096807 0.000000 1.791856 2.235422 0.662577'/>
				</IndexedFaceSet>
			</Shape>
			<Shape DEF='_IDX_69'>
				<Appearance USE='Material_23_IDX_23'/>
				<IndexedFaceSet solid="false" coordIndex='0 1 2 3 -1'>
					<Coordinate point='0.699994 0.644685 0.165644 0.686365 0.686365 0.000000 1.255822 1.255822 0.000000 1.172450 1.262668 0.372699'/>
				</IndexedFaceSet>
			</Shape>
			<Shape DEF='_IDX_70'>
				<Appearance USE='Material_22_IDX_22'/>
				<IndexedFaceSet solid="false" coordIndex='0 1 2 3 -1'>
					<Coordinate point='0.325505 0.263214 0.041411 0.297928 0.297928 0.000000 0.686365 0.686365 0.000000 0.699994 0.644685 0.165644'/>
				</IndexedFaceSet>
			</Shape>
			<Shape DEF='_IDX_71'>
				<Appearance USE='Material_21_IDX_21'/>
				<IndexedFaceSet solid="false" coordIndex='0 1 2 3 -1'>
					<Coordinate point='0.000000 0.000000 0.000000 0.000000 0.000000 0.000000 0.297928 0.297928 0.000000 0.325505 0.263214 0.041411'/>
				</IndexedFaceSet>
			</Shape>
			<Shape DEF='_IDX_72'>
				<Appearance USE='Material_28_IDX_28'/>
				<IndexedFaceSet solid="false" coordIndex='0 1 2 3 -1'>
					<Coordinate point='0.000000 0.378667 -0.160000 0.060374 0.376869 -0.154548 0.000000 0.000000 0.000000 0.000000 0.000000 0.000000'/>
				</IndexedFaceSet>
			</Shape>
			<Shape DEF='_IDX_73'>
				<Appearance USE='Material_27_IDX_27'/>
				<IndexedFaceSet solid="false" coordIndex='0 1 2 3 -1'>
					<Coordinate point='0.000000 0.629333 -0.640000 0.169732 0.635480 -0.618193 0.060374 0.376869 -0.154548 0.000000 0.378667 -0.160000'/>
				</IndexedFaceSet>
			</Shape>
			<Shape DEF='_IDX_74'>
				<Appearance USE='Material_26_IDX_26'/>
				<IndexedFaceSet solid="false" coordIndex='0 1 2 3 -1'>
					<Coordinate point='0.000000 0.624000 -1.440000 0.377057 0.657579 -1.390933 0.169732 0.635480 -0.618193 0.000000 0.629333 -0.640000'/>
				</IndexedFaceSet>
			</Shape>
			<Shape DEF='_IDX_75'>
				<Appearance USE='Material_25_IDX_25'/>
				<IndexedFaceSet solid="false" coordIndex='0 1 2 3 -1'>
					<Coordinate point='0.000000 0.234667 -2.560000 0.731332 0.324908 -2.472770 0.377057 0.657579 -1.390933 0.000000 0.624000 -1.440000'/>
				</IndexedFaceSet>
			</Shape>
			<Shape DEF='_IDX_76'>
				<Appearance USE='Material_32_IDX_32'/>
				<IndexedFaceSet solid="false" coordIndex='0 1 2 3 -1'>
					<Coordinate point='0.060374 0.376869 -0.154548 0.118613 0.371285 -0.138564 0.000000 0.000000 0.000000 0.000000 0.000000 0.000000'/>
				</IndexedFaceSet>
			</Shape>
			<Shape DEF='_IDX_77'>
				<Appearance USE='Material_31_IDX_31'/>
				<IndexedFaceSet solid="false" coordIndex='0 1 2 3 -1'>
					<Coordinate point='0.169732 0.635480 -0.618193 0.327735 0.652061 -0.554256 0.118613 0.371285 -0.138564 0.060374 0.376869 -0.154548'/>
				</IndexedFaceSet>
			</Shape>
			<Shape DEF='_IDX_78'>
				<Appearance DEF='Material_49_IDX_49'>
					<Material diffuseColor='0.307178 0.587195 0.737497'/>
					
				</Appearance>
				<IndexedFaceSet solid="false" coordIndex='0 1 2 3 -1'>
					<Coordinate point='0.377057 0.657579 -1.390933 0.717876 0.751817 -1.247077 0.327735 0.652061 -0.554256 0.169732 0.635480 -0.618193'/>
				</IndexedFaceSet>
			</Shape>
			<Shape DEF='_IDX_79'>
				<Appearance DEF='Material_50_IDX_50'>
					<Material diffuseColor='0.248899 0.262767 0.782065'/>
					
				</Appearance>
				<IndexedFaceSet solid="false" coordIndex='0 1 2 3 -1'>
					<Coordinate point='0.731332 0.324908 -2.472770 1.379547 0.580045 -2.217025 0.717876 0.751817 -1.247077 0.377057 0.657579 -1.390933'/>
				</IndexedFaceSet>
			</Shape>
			<Shape DEF='_IDX_80'>
				<Appearance USE='Material_36_IDX_36'/>
				<IndexedFaceSet solid="false" coordIndex='0 1 2 3 -1'>
					<Coordinate point='0.118613 0.371285 -0.138564 0.172783 0.361388 -0.113137 0.000000 0.000000 0.000000 0.000000 0.000000 0.000000'/>
				</IndexedFaceSet>
			</Shape>
			<Shape DEF='_IDX_81'>
				<Appearance USE='Material_35_IDX_35'/>
				<IndexedFaceSet solid="false" coordIndex='0 1 2 3 -1'>
					<Coordinate point='0.327735 0.652061 -0.554256 0.463822 0.673792 -0.452548 0.172783 0.361388 -0.113137 0.118613 0.371285 -0.138564'/>
				</IndexedFaceSet>
			</Shape>
			<Shape DEF='_IDX_82'>
				<Appearance USE='Material_34_IDX_34'/>
				<IndexedFaceSet solid="false" coordIndex='0 1 2 3 -1'>
					<Coordinate point='0.717876 0.751817 -1.247077 0.991375 0.888230 -1.018234 0.463822 0.673792 -0.452548 0.327735 0.652061 -0.554256'/>
				</IndexedFaceSet>
			</Shape>
			<Shape DEF='_IDX_83'>
				<Appearance USE='Material_33_IDX_33'/>
				<IndexedFaceSet solid="false" coordIndex='0 1 2 3 -1'>
					<Coordinate point='1.379547 0.580045 -2.217025 1.873697 0.955717 -1.810193 0.991375 0.888230 -1.018234 0.717876 0.751817 -1.247077'/>
				</IndexedFaceSet>
			</Shape>
			<Shape DEF='_IDX_84'>
				<Appearance USE='Material_40_IDX_40'/>
				<IndexedFaceSet solid="false" coordIndex='0 1 2 3 -1'>
					<Coordinate point='0.172783 0.361388 -0.113137 0.221333 0.346410 -0.080000 0.000000 0.000000 0.000000 0.000000 0.000000 0.000000'/>
				</IndexedFaceSet>
			</Shape>
			<Shape DEF='_IDX_85'>
				<Appearance USE='Material_39_IDX_39'/>
				<IndexedFaceSet solid="false" coordIndex='0 1 2 3 -1'>
					<Coordinate point='0.463822 0.673792 -0.452548 0.570667 0.692820 -0.320000 0.221333 0.346410 -0.080000 0.172783 0.361388 -0.113137'/>
				</IndexedFaceSet>
			</Shape>
			<Shape DEF='_IDX_86'>
				<Appearance USE='Material_38_IDX_38'/>
				<IndexedFaceSet solid="false" coordIndex='0 1 2 3 -1'>
					<Coordinate point='0.991375 0.888230 -1.018234 1.176000 1.039230 -0.720000 0.570667 0.692820 -0.320000 0.463822 0.673792 -0.452548'/>
				</IndexedFaceSet>
			</Shape>
			<Shape DEF='_IDX_87'>
				<Appearance USE='Material_37_IDX_37'/>
				<IndexedFaceSet solid="false" coordIndex='0 1 2 3 -1'>
					<Coordinate point='1.873697 0.955717 -1.810193 2.165333 1.385641 -1.280000 1.176000 1.039230 -0.720000 0.991375 0.888230 -1.018234'/>
				</IndexedFaceSet>
			</Shape>
			<Shape DEF='_IDX_88'>
				<Appearance USE='Material_44_IDX_44'/>
				<IndexedFaceSet solid="false" coordIndex='0 1 2 3 -1'>
					<Coordinate point='0.221333 0.346410 -0.080000 0.263214 0.325505 -0.041411 0.000000 0.000000 0.000000 0.000000 0.000000 0.000000'/>
				</IndexedFaceSet>
			</Shape>
			<Shape DEF='_IDX_89'>
				<Appearance USE='Material_43_IDX_43'/>
				<IndexedFaceSet solid="false" coordIndex='0 1 2 3 -1'>
					<Coordinate point='0.570667 0.692820 -0.320000 0.644685 0.699994 -0.165644 0.263214 0.325505 -0.041411 0.221333 0.346410 -0.080000'/>
				</IndexedFaceSet>
			</Shape>
			<Shape DEF='_IDX_90'>
				<Appearance USE='Material_42_IDX_42'/>
				<IndexedFaceSet solid="false" coordIndex='0 1 2 3 -1'>
					<Coordinate point='1.176000 1.039230 -0.720000 1.262668 1.172450 -0.372699 0.644685 0.699994 -0.165644 0.570667 0.692820 -0.320000'/>
				</IndexedFaceSet>
			</Shape>
			<Shape DEF='_IDX_91'>
				<Appearance USE='Material_41_IDX_41'/>
				<IndexedFaceSet solid="false" coordIndex='0 1 2 3 -1'>
					<Coordinate point='2.165333 1.385641 -1.280000 2.235422 1.791856 -0.662577 1.262668 1.172450 -0.372699 1.176000 1.039230 -0.720000'/>
				</IndexedFaceSet>
			</Shape>
			<Shape DEF='_IDX_92'>
				<Appearance USE='Material_48_IDX_48'/>
				<IndexedFaceSet solid="false" coordIndex='0 1 2 3 -1'>
					<Coordinate point='0.263214 0.325505 -0.041411 0.297928 0.297928 -0.000000 0.000000 0.000000 0.000000 0.000000 0.000000 0.000000'/>
				</IndexedFaceSet>
			</Shape>
			<Shape DEF='_IDX_93'>
				<Appearance USE='Material_47_IDX_47'/>
				<IndexedFaceSet solid="false" coordIndex='0 1 2 3 -1'>
					<Coordinate point='0.644685 0.699994 -0.165644 0.686365 0.686365 -0.000000 0.297928 0.297928 -0.000000 0.263214 0.325505 -0.041411'/>
				</IndexedFaceSet>
			</Shape>
			<Shape DEF='_IDX_94'>
				<Appearance USE='Material_46_IDX_46'/>
				<IndexedFaceSet solid="false" coordIndex='0 1 2 3 -1'>
					<Coordinate point='1.262668 1.172450 -0.372699 1.255822 1.255822 -0.000000 0.686365 0.686365 -0.000000 0.644685 0.699994 -0.165644'/>
				</IndexedFaceSet>
			</Shape>
			<Shape DEF='_IDX_95'>
				<Appearance USE='Material_45_IDX_45'/>
				<IndexedFaceSet solid="false" coordIndex='0 1 2 3 -1'>
					<Coordinate point='2.235422 1.791856 -0.662577 2.096807 2.096807 -0.000000 1.255822 1.255822 -0.000000 1.262668 1.172450 -0.372699'/>
				</IndexedFaceSet>
			</Shape>
			<Shape DEF='_IDX_96'>
				<Appearance USE='Material_4_IDX_4'/>
				<IndexedFaceSet solid="false" coordIndex='0 1 2 3 -1'>
					<Coordinate point='-0.624000 0.000000 1.440000 -0.657579 -0.377057 1.390933 -0.324908 -0.731332 2.472770 -0.234667 0.000000 2.560000'/>
				</IndexedFaceSet>
			</Shape>
			<Shape DEF='_IDX_97'>
				<Appearance USE='Material_3_IDX_3'/>
				<IndexedFaceSet solid="false" coordIndex='0 1 2 3 -1'>
					<Coordinate point='-0.629333 0.000000 0.640000 -0.635480 -0.169732 0.618193 -0.657579 -0.377057 1.390933 -0.624000 0.000000 1.440000'/>
				</IndexedFaceSet>
			</Shape>
			<Shape DEF='_IDX_98'>
				<Appearance USE='Material_2_IDX_2'/>
				<IndexedFaceSet solid="false" coordIndex='0 1 2 3 -1'>
					<Coordinate point='-0.378667 0.000000 0.160000 -0.376869 -0.060374 0.154548 -0.635480 -0.169732 0.618193 -0.629333 0.000000 0.640000'/>
				</IndexedFaceSet>
			</Shape>
			<Shape DEF='_IDX_99'>
				<Appearance USE='Material_1_IDX_1'/>
				<IndexedFaceSet solid="false" coordIndex='0 1 2 3 -1'>
					<Coordinate point='0.000000 0.000000 0.000000 0.000000 0.000000 0.000000 -0.376869 -0.060374 0.154548 -0.378667 0.000000 0.160000'/>
				</IndexedFaceSet>
			</Shape>
			<Shape DEF='_IDX_100'>
				<Appearance USE='Material_8_IDX_8'/>
				<IndexedFaceSet solid="false" coordIndex='0 1 2 3 -1'>
					<Coordinate point='-0.657579 -0.377057 1.390933 -0.751817 -0.717876 1.247077 -0.580045 -1.379547 2.217025 -0.324908 -0.731332 2.472770'/>
				</IndexedFaceSet>
			</Shape>
			<Shape DEF='_IDX_101'>
				<Appearance USE='Material_7_IDX_7'/>
				<IndexedFaceSet solid="false" coordIndex='0 1 2 3 -1'>
					<Coordinate point='-0.635480 -0.169732 0.618193 -0.652061 -0.327735 0.554256 -0.751817 -0.717876 1.247077 -0.657579 -0.377057 1.390933'/>
				</IndexedFaceSet>
			</Shape>
			<Shape DEF='_IDX_102'>
				<Appearance USE='Material_6_IDX_6'/>
				<IndexedFaceSet solid="false" coordIndex='0 1 2 3 -1'>
					<Coordinate point='-0.376869 -0.060374 0.154548 -0.371285 -0.118613 0.138564 -0.652061 -0.327735 0.554256 -0.635480 -0.169732 0.618193'/>
				</IndexedFaceSet>
			</Shape>
			<Shape DEF='_IDX_103'>
				<Appearance USE='Material_5_IDX_5'/>
				<IndexedFaceSet solid="false" coordIndex='0 1 2 3 -1'>
					<Coordinate point='0.000000 0.000000 0.000000 0.000000 0.000000 0.000000 -0.371285 -0.118613 0.138564 -0.376869 -0.060374 0.154548'/>
				</IndexedFaceSet>
			</Shape>
			<Shape DEF='_IDX_104'>
				<Appearance USE='Material_12_IDX_12'/>
				<IndexedFaceSet solid="false" coordIndex='0 1 2 3 -1'>
					<Coordinate point='-0.751817 -0.717876 1.247077 -0.888230 -0.991375 1.018234 -0.955717 -1.873697 1.810193 -0.580045 -1.379547 2.217025'/>
				</IndexedFaceSet>
			</Shape>
			<Shape DEF='_IDX_105'>
				<Appearance USE='Material_11_IDX_11'/>
				<IndexedFaceSet solid="false" coordIndex='0 1 2 3 -1'>
					<Coordinate point='-0.652061 -0.327735 0.554256 -0.673792 -0.463822 0.452548 -0.888230 -0.991375 1.018234 -0.751817 -0.717876 1.247077'/>
				</IndexedFaceSet>
			</Shape>
			<Shape DEF='_IDX_106'>
				<Appearance USE='Material_10_IDX_10'/>
				<IndexedFaceSet solid="false" coordIndex='0 1 2 3 -1'>
					<Coordinate point='-0.371285 -0.118613 0.138564 -0.361388 -0.172783 0.113137 -0.673792 -0.463822 0.452548 -0.652061 -0.327735 0.554256'/>
				</IndexedFaceSet>
			</Shape>
			<Shape DEF='_IDX_107'>
				<Appearance USE='Material_9_IDX_9'/>
				<IndexedFaceSet solid="false" coordIndex='0 1 2 3 -1'>
					<Coordinate point='0.000000 0.000000 0.000000 0.000000 0.000000 0.000000 -0.361388 -0.172783 0.113137 -0.371285 -0.118613 0.138564'/>
				</IndexedFaceSet>
			</Shape>
			<Shape DEF='_IDX_108'>
				<Appearance USE='Material_16_IDX_16'/>
				<IndexedFaceSet solid="false" coordIndex='0 1 2 3 -1'>
					<Coordinate point='-0.888230 -0.991375 1.018234 -1.039230 -1.176000 0.720000 -1.385641 -2.165333 1.280000 -0.955717 -1.873697 1.810193'/>
				</IndexedFaceSet>
			</Shape>
			<Shape DEF='_IDX_109'>
				<Appearance USE='Material_15_IDX_15'/>
				<IndexedFaceSet solid="false" coordIndex='0 1 2 3 -1'>
					<Coordinate point='-0.673792 -0.463822 0.452548 -0.692820 -0.570667 0.320000 -1.039230 -1.176000 0.720000 -0.888230 -0.991375 1.018234'/>
				</IndexedFaceSet>
			</Shape>
			<Shape DEF='_IDX_110'>
				<Appearance USE='Material_14_IDX_14'/>
				<IndexedFaceSet solid="false" coordIndex='0 1 2 3 -1'>
					<Coordinate point='-0.361388 -0.172783 0.113137 -0.346410 -0.221333 0.080000 -0.692820 -0.570667 0.320000 -0.673792 -0.463822 0.452548'/>
				</IndexedFaceSet>
			</Shape>
			<Shape DEF='_IDX_111'>
				<Appearance USE='Material_13_IDX_13'/>
				<IndexedFaceSet solid="false" coordIndex='0 1 2 3 -1'>
					<Coordinate point='0.000000 0.000000 0.000000 0.000000 0.000000 0.000000 -0.346410 -0.221333 0.080000 -0.361388 -0.172783 0.113137'/>
				</IndexedFaceSet>
			</Shape>
			<Shape DEF='_IDX_112'>
				<Appearance USE='Material_20_IDX_20'/>
				<IndexedFaceSet solid="false" coordIndex='0 1 2 3 -1'>
					<Coordinate point='-1.039230 -1.176000 0.720000 -1.172450 -1.262668 0.372699 -1.791856 -2.235422 0.662577 -1.385641 -2.165333 1.280000'/>
				</IndexedFaceSet>
			</Shape>
			<Shape DEF='_IDX_113'>
				<Appearance USE='Material_19_IDX_19'/>
				<IndexedFaceSet solid="false" coordIndex='0 1 2 3 -1'>
					<Coordinate point='-0.692820 -0.570667 0.320000 -0.699994 -0.644685 0.165644 -1.172450 -1.262668 0.372699 -1.039230 -1.176000 0.720000'/>
				</IndexedFaceSet>
			</Shape>
			<Shape DEF='_IDX_114'>
				<Appearance USE='Material_18_IDX_18'/>
				<IndexedFaceSet solid="false" coordIndex='0 1 2 3 -1'>
					<Coordinate point='-0.346410 -0.221333 0.080000 -0.325505 -0.263214 0.041411 -0.699994 -0.644685 0.165644 -0.692820 -0.570667 0.320000'/>
				</IndexedFaceSet>
			</Shape>
			<Shape DEF='_IDX_115'>
				<Appearance USE='Material_17_IDX_17'/>
				<IndexedFaceSet solid="false" coordIndex='0 1 2 3 -1'>
					<Coordinate point='0.000000 0.000000 0.000000 0.000000 0.000000 0.000000 -0.325505 -0.263214 0.041411 -0.346410 -0.221333 0.080000'/>
				</IndexedFaceSet>
			</Shape>
			<Shape DEF='_IDX_116'>
				<Appearance USE='Material_24_IDX_24'/>
				<IndexedFaceSet solid="false" coordIndex='0 1 2 3 -1'>
					<Coordinate point='-1.172450 -1.262668 0.372699 -1.255822 -1.255822 0.000000 -2.096807 -2.096807 0.000000 -1.791856 -2.235422 0.662577'/>
				</IndexedFaceSet>
			</Shape>
			<Shape DEF='_IDX_117'>
				<Appearance USE='Material_23_IDX_23'/>
				<IndexedFaceSet solid="false" coordIndex='0 1 2 3 -1'>
					<Coordinate point='-0.699994 -0.644685 0.165644 -0.686365 -0.686365 0.000000 -1.255822 -1.255822 0.000000 -1.172450 -1.262668 0.372699'/>
				</IndexedFaceSet>
			</Shape>
			<Shape DEF='_IDX_118'>
				<Appearance USE='Material_22_IDX_22'/>
				<IndexedFaceSet solid="false" coordIndex='0 1 2 3 -1'>
					<Coordinate point='-0.325505 -0.263214 0.041411 -0.297928 -0.297928 0.000000 -0.686365 -0.686365 0.000000 -0.699994 -0.644685 0.165644'/>
				</IndexedFaceSet>
			</Shape>
			<Shape DEF='_IDX_119'>
				<Appearance USE='Material_21_IDX_21'/>
				<IndexedFaceSet solid="false" coordIndex='0 1 2 3 -1'>
					<Coordinate point='0.000000 0.000000 0.000000 0.000000 0.000000 0.000000 -0.297928 -0.297928 0.000000 -0.325505 -0.263214 0.041411'/>
				</IndexedFaceSet>
			</Shape>
			<Shape DEF='_IDX_120'>
				<Appearance USE='Material_28_IDX_28'/>
				<IndexedFaceSet solid="false" coordIndex='0 1 2 3 -1'>
					<Coordinate point='0.000000 -0.378667 -0.160000 -0.060374 -0.376869 -0.154548 0.000000 0.000000 0.000000 0.000000 0.000000 0.000000'/>
				</IndexedFaceSet>
			</Shape>
			<Shape DEF='_IDX_121'>
				<Appearance USE='Material_27_IDX_27'/>
				<IndexedFaceSet solid="false" coordIndex='0 1 2 3 -1'>
					<Coordinate point='0.000000 -0.629333 -0.640000 -0.169732 -0.635480 -0.618193 -0.060374 -0.376869 -0.154548 0.000000 -0.378667 -0.160000'/>
				</IndexedFaceSet>
			</Shape>
			<Shape DEF='_IDX_122'>
				<Appearance USE='Material_26_IDX_26'/>
				<IndexedFaceSet solid="false" coordIndex='0 1 2 3 -1'>
					<Coordinate point='0.000000 -0.624000 -1.440000 -0.377057 -0.657579 -1.390933 -0.169732 -0.635480 -0.618193 0.000000 -0.629333 -0.640000'/>
				</IndexedFaceSet>
			</Shape>
			<Shape DEF='_IDX_123'>
				<Appearance USE='Material_25_IDX_25'/>
				<IndexedFaceSet solid="false" coordIndex='0 1 2 3 -1'>
					<Coordinate point='0.000000 -0.234667 -2.560000 -0.731332 -0.324908 -2.472770 -0.377057 -0.657579 -1.390933 0.000000 -0.624000 -1.440000'/>
				</IndexedFaceSet>
			</Shape>
			<Shape DEF='_IDX_124'>
				<Appearance USE='Material_32_IDX_32'/>
				<IndexedFaceSet solid="false" coordIndex='0 1 2 3 -1'>
					<Coordinate point='-0.060374 -0.376869 -0.154548 -0.118613 -0.371285 -0.138564 0.000000 0.000000 0.000000 0.000000 0.000000 0.000000'/>
				</IndexedFaceSet>
			</Shape>
			<Shape DEF='_IDX_125'>
				<Appearance USE='Material_31_IDX_31'/>
				<IndexedFaceSet solid="false" coordIndex='0 1 2 3 -1'>
					<Coordinate point='-0.169732 -0.635480 -0.618193 -0.327735 -0.652061 -0.554256 -0.118613 -0.371285 -0.138564 -0.060374 -0.376869 -0.154548'/>
				</IndexedFaceSet>
			</Shape>
			<Shape DEF='_IDX_126'>
				<Appearance USE='Material_49_IDX_49'/>
				<IndexedFaceSet solid="false" coordIndex='0 1 2 3 -1'>
					<Coordinate point='-0.377057 -0.657579 -1.390933 -0.717876 -0.751817 -1.247077 -0.327735 -0.652061 -0.554256 -0.169732 -0.635480 -0.618193'/>
				</IndexedFaceSet>
			</Shape>
			<Shape DEF='_IDX_127'>
				<Appearance USE='Material_50_IDX_50'/>
				<IndexedFaceSet solid="false" coordIndex='0 1 2 3 -1'>
					<Coordinate point='-0.731332 -0.324908 -2.472770 -1.379547 -0.580045 -2.217025 -0.717876 -0.751817 -1.247077 -0.377057 -0.657579 -1.390933'/>
				</IndexedFaceSet>
			</Shape>
			<Shape DEF='_IDX_128'>
				<Appearance USE='Material_36_IDX_36'/>
				<IndexedFaceSet solid="false" coordIndex='0 1 2 3 -1'>
					<Coordinate point='-0.118613 -0.371285 -0.138564 -0.172783 -0.361388 -0.113137 0.000000 0.000000 0.000000 0.000000 0.000000 0.000000'/>
				</IndexedFaceSet>
			</Shape>
			<Shape DEF='_IDX_129'>
				<Appearance USE='Material_35_IDX_35'/>
				<IndexedFaceSet solid="false" coordIndex='0 1 2 3 -1'>
					<Coordinate point='-0.327735 -0.652061 -0.554256 -0.463822 -0.673792 -0.452548 -0.172783 -0.361388 -0.113137 -0.118613 -0.371285 -0.138564'/>
				</IndexedFaceSet>
			</Shape>
			<Shape DEF='_IDX_130'>
				<Appearance USE='Material_34_IDX_34'/>
				<IndexedFaceSet solid="false" coordIndex='0 1 2 3 -1'>
					<Coordinate point='-0.717876 -0.751817 -1.247077 -0.991375 -0.888230 -1.018234 -0.463822 -0.673792 -0.452548 -0.327735 -0.652061 -0.554256'/>
				</IndexedFaceSet>
			</Shape>
			<Shape DEF='_IDX_131'>
				<Appearance USE='Material_33_IDX_33'/>
				<IndexedFaceSet solid="false" coordIndex='0 1 2 3 -1'>
					<Coordinate point='-1.379547 -0.580045 -2.217025 -1.873697 -0.955717 -1.810193 -0.991375 -0.888230 -1.018234 -0.717876 -0.751817 -1.247077'/>
				</IndexedFaceSet>
			</Shape>
			<Shape DEF='_IDX_132'>
				<Appearance USE='Material_40_IDX_40'/>
				<IndexedFaceSet solid="false" coordIndex='0 1 2 3 -1'>
					<Coordinate point='-0.172783 -0.361388 -0.113137 -0.221333 -0.346410 -0.080000 0.000000 0.000000 0.000000 0.000000 0.000000 0.000000'/>
				</IndexedFaceSet>
			</Shape>
			<Shape DEF='_IDX_133'>
				<Appearance USE='Material_39_IDX_39'/>
				<IndexedFaceSet solid="false" coordIndex='0 1 2 3 -1'>
					<Coordinate point='-0.463822 -0.673792 -0.452548 -0.570667 -0.692820 -0.320000 -0.221333 -0.346410 -0.080000 -0.172783 -0.361388 -0.113137'/>
				</IndexedFaceSet>
			</Shape>
			<Shape DEF='_IDX_134'>
				<Appearance USE='Material_38_IDX_38'/>
				<IndexedFaceSet solid="false" coordIndex='0 1 2 3 -1'>
					<Coordinate point='-0.991375 -0.888230 -1.018234 -1.176000 -1.039230 -0.720000 -0.570667 -0.692820 -0.320000 -0.463822 -0.673792 -0.452548'/>
				</IndexedFaceSet>
			</Shape>
			<Shape DEF='_IDX_135'>
				<Appearance USE='Material_37_IDX_37'/>
				<IndexedFaceSet solid="false" coordIndex='0 1 2 3 -1'>
					<Coordinate point='-1.873697 -0.955717 -1.810193 -2.165333 -1.385641 -1.280000 -1.176000 -1.039230 -0.720000 -0.991375 -0.888230 -1.018234'/>
				</IndexedFaceSet>
			</Shape>
			<Shape DEF='_IDX_136'>
				<Appearance USE='Material_44_IDX_44'/>
				<IndexedFaceSet solid="false" coordIndex='0 1 2 3 -1'>
					<Coordinate point='-0.221333 -0.346410 -0.080000 -0.263214 -0.325505 -0.041411 0.000000 0.000000 0.000000 0.000000 0.000000 0.000000'/>
				</IndexedFaceSet>
			</Shape>
			<Shape DEF='_IDX_137'>
				<Appearance USE='Material_43_IDX_43'/>
				<IndexedFaceSet solid="false" coordIndex='0 1 2 3 -1'>
					<Coordinate point='-0.570667 -0.692820 -0.320000 -0.644685 -0.699994 -0.165644 -0.263214 -0.325505 -0.041411 -0.221333 -0.346410 -0.080000'/>
				</IndexedFaceSet>
			</Shape>
			<Shape DEF='_IDX_138'>
				<Appearance USE='Material_42_IDX_42'/>
				<IndexedFaceSet solid="false" coordIndex='0 1 2 3 -1'>
					<Coordinate point='-1.176000 -1.039230 -0.720000 -1.262668 -1.172450 -0.372699 -0.644685 -0.699994 -0.165644 -0.570667 -0.692820 -0.320000'/>
				</IndexedFaceSet>
			</Shape>
			<Shape DEF='_IDX_139'>
				<Appearance USE='Material_41_IDX_41'/>
				<IndexedFaceSet solid="false" coordIndex='0 1 2 3 -1'>
					<Coordinate point='-2.165333 -1.385641 -1.280000 -2.235422 -1.791856 -0.662577 -1.262668 -1.172450 -0.372699 -1.176000 -1.039230 -0.720000'/>
				</IndexedFaceSet>
			</Shape>
			<Shape DEF='_IDX_140'>
				<Appearance USE='Material_48_IDX_48'/>
				<IndexedFaceSet solid="false" coordIndex='0 1 2 3 -1'>
					<Coordinate point='-0.263214 -0.325505 -0.041411 -0.297928 -0.297928 -0.000000 0.000000 0.000000 0.000000 0.000000 0.000000 0.000000'/>
				</IndexedFaceSet>
			</Shape>
			<Shape DEF='_IDX_141'>
				<Appearance USE='Material_47_IDX_47'/>
				<IndexedFaceSet solid="false" coordIndex='0 1 2 3 -1'>
					<Coordinate point='-0.644685 -0.699994 -0.165644 -0.686365 -0.686365 -0.000000 -0.297928 -0.297928 -0.000000 -0.263214 -0.325505 -0.041411'/>
				</IndexedFaceSet>
			</Shape>
			<Shape DEF='_IDX_142'>
				<Appearance USE='Material_46_IDX_46'/>
				<IndexedFaceSet solid="false" coordIndex='0 1 2 3 -1'>
					<Coordinate point='-1.262668 -1.172450 -0.372699 -1.255822 -1.255822 -0.000000 -0.686365 -0.686365 -0.000000 -0.644685 -0.699994 -0.165644'/>
				</IndexedFaceSet>
			</Shape>
			<Shape DEF='_IDX_143'>
				<Appearance USE='Material_45_IDX_45'/>
				<IndexedFaceSet solid="false" coordIndex='0 1 2 3 -1'>
					<Coordinate point='-2.235422 -1.791856 -0.662577 -2.096807 -2.096807 -0.000000 -1.255822 -1.255822 -0.000000 -1.262668 -1.172450 -0.372699'/>
				</IndexedFaceSet>
			</Shape>
			<Shape DEF='_IDX_144'>
				<Appearance USE='Material_1_IDX_1'/>
				<IndexedFaceSet solid="false" coordIndex='0 1 2 3 -1'>
					<Coordinate point='-0.378667 0.000000 0.160000 -0.376869 0.060374 0.154548 0.000000 0.000000 0.000000 0.000000 0.000000 0.000000'/>
				</IndexedFaceSet>
			</Shape>
			<Shape DEF='_IDX_145'>
				<Appearance USE='Material_2_IDX_2'/>
				<IndexedFaceSet solid="false" coordIndex='0 1 2 3 -1'>
					<Coordinate point='-0.629333 0.000000 0.640000 -0.635480 0.169732 0.618193 -0.376869 0.060374 0.154548 -0.378667 0.000000 0.160000'/>
				</IndexedFaceSet>
			</Shape>
			<Shape DEF='_IDX_146'>
				<Appearance USE='Material_3_IDX_3'/>
				<IndexedFaceSet solid="false" coordIndex='0 1 2 3 -1'>
					<Coordinate point='-0.624000 0.000000 1.440000 -0.657579 0.377057 1.390933 -0.635480 0.169732 0.618193 -0.629333 0.000000 0.640000'/>
				</IndexedFaceSet>
			</Shape>
			<Shape DEF='_IDX_147'>
				<Appearance USE='Material_4_IDX_4'/>
				<IndexedFaceSet solid="false" coordIndex='0 1 2 3 -1'>
					<Coordinate point='-0.234667 0.000000 2.560000 -0.324908 0.731332 2.472770 -0.657579 0.377057 1.390933 -0.624000 0.000000 1.440000'/>
				</IndexedFaceSet>
			</Shape>
			<Shape DEF='_IDX_148'>
				<Appearance USE='Material_5_IDX_5'/>
				<IndexedFaceSet solid="false" coordIndex='0 1 2 3 -1'>
					<Coordinate point='-0.376869 0.060374 0.154548 -0.371285 0.118613 0.138564 0.000000 0.000000 0.000000 0.000000 0.000000 0.000000'/>
				</IndexedFaceSet>
			</Shape>
			<Shape DEF='_IDX_149'>
				<Appearance USE='Material_6_IDX_6'/>
				<IndexedFaceSet solid="false" coordIndex='0 1 2 3 -1'>
					<Coordinate point='-0.635480 0.169732 0.618193 -0.652061 0.327735 0.554256 -0.371285 0.118613 0.138564 -0.376869 0.060374 0.154548'/>
				</IndexedFaceSet>
			</Shape>
			<Shape DEF='_IDX_150'>
				<Appearance USE='Material_7_IDX_7'/>
				<IndexedFaceSet solid="false" coordIndex='0 1 2 3 -1'>
					<Coordinate point='-0.657579 0.377057 1.390933 -0.751817 0.717876 1.247077 -0.652061 0.327735 0.554256 -0.635480 0.169732 0.618193'/>
				</IndexedFaceSet>
			</Shape>
			<Shape DEF='_IDX_151'>
				<Appearance USE='Material_8_IDX_8'/>
				<IndexedFaceSet solid="false" coordIndex='0 1 2 3 -1'>
					<Coordinate point='-0.324908 0.731332 2.472770 -0.580045 1.379547 2.217025 -0.751817 0.717876 1.247077 -0.657579 0.377057 1.390933'/>
				</IndexedFaceSet>
			</Shape>
			<Shape DEF='_IDX_152'>
				<Appearance USE='Material_9_IDX_9'/>
				<IndexedFaceSet solid="false" coordIndex='0 1 2 3 -1'>
					<Coordinate point='-0.371285 0.118613 0.138564 -0.361388 0.172783 0.113137 0.000000 0.000000 0.000000 0.000000 0.000000 0.000000'/>
				</IndexedFaceSet>
			</Shape>
			<Shape DEF='_IDX_153'>
				<Appearance USE='Material_10_IDX_10'/>
				<IndexedFaceSet solid="false" coordIndex='0 1 2 3 -1'>
					<Coordinate point='-0.652061 0.327735 0.554256 -0.673792 0.463822 0.452548 -0.361388 0.172783 0.113137 -0.371285 0.118613 0.138564'/>
				</IndexedFaceSet>
			</Shape>
			<Shape DEF='_IDX_154'>
				<Appearance USE='Material_11_IDX_11'/>
				<IndexedFaceSet solid="false" coordIndex='0 1 2 3 -1'>
					<Coordinate point='-0.751817 0.717876 1.247077 -0.888230 0.991375 1.018234 -0.673792 0.463822 0.452548 -0.652061 0.327735 0.554256'/>
				</IndexedFaceSet>
			</Shape>
			<Shape DEF='_IDX_155'>
				<Appearance USE='Material_12_IDX_12'/>
				<IndexedFaceSet solid="false" coordIndex='0 1 2 3 -1'>
					<Coordinate point='-0.580045 1.379547 2.217025 -0.955717 1.873697 1.810193 -0.888230 0.991375 1.018234 -0.751817 0.717876 1.247077'/>
				</IndexedFaceSet>
			</Shape>
			<Shape DEF='_IDX_156'>
				<Appearance USE='Material_13_IDX_13'/>
				<IndexedFaceSet solid="false" coordIndex='0 1 2 3 -1'>
					<Coordinate point='-0.361388 0.172783 0.113137 -0.346410 0.221333 0.080000 0.000000 0.000000 0.000000 0.000000 0.000000 0.000000'/>
				</IndexedFaceSet>
			</Shape>
			<Shape DEF='_IDX_157'>
				<Appearance USE='Material_14_IDX_14'/>
				<IndexedFaceSet solid="false" coordIndex='0 1 2 3 -1'>
					<Coordinate point='-0.673792 0.463822 0.452548 -0.692820 0.570667 0.320000 -0.346410 0.221333 0.080000 -0.361388 0.172783 0.113137'/>
				</IndexedFaceSet>
			</Shape>
			<Shape DEF='_IDX_158'>
				<Appearance USE='Material_15_IDX_15'/>
				<IndexedFaceSet solid="false" coordIndex='0 1 2 3 -1'>
					<Coordinate point='-0.888230 0.991375 1.018234 -1.039230 1.176000 0.720000 -0.692820 0.570667 0.320000 -0.673792 0.463822 0.452548'/>
				</IndexedFaceSet>
			</Shape>
			<Shape DEF='_IDX_159'>
				<Appearance USE='Material_16_IDX_16'/>
				<IndexedFaceSet solid="false" coordIndex='0 1 2 3 -1'>
					<Coordinate point='-0.955717 1.873697 1.810193 -1.385641 2.165333 1.280000 -1.039230 1.176000 0.720000 -0.888230 0.991375 1.018234'/>
				</IndexedFaceSet>
			</Shape>
			<Shape DEF='_IDX_160'>
				<Appearance USE='Material_17_IDX_17'/>
				<IndexedFaceSet solid="false" coordIndex='0 1 2 3 -1'>
					<Coordinate point='-0.346410 0.221333 0.080000 -0.325505 0.263214 0.041411 0.000000 0.000000 0.000000 0.000000 0.000000 0.000000'/>
				</IndexedFaceSet>
			</Shape>
			<Shape DEF='_IDX_161'>
				<Appearance USE='Material_18_IDX_18'/>
				<IndexedFaceSet solid="false" coordIndex='0 1 2 3 -1'>
					<Coordinate point='-0.692820 0.570667 0.320000 -0.699994 0.644685 0.165644 -0.325505 0.263214 0.041411 -0.346410 0.221333 0.080000'/>
				</IndexedFaceSet>
			</Shape>
			<Shape DEF='_IDX_162'>
				<Appearance USE='Material_19_IDX_19'/>
				<IndexedFaceSet solid="false" coordIndex='0 1 2 3 -1'>
					<Coordinate point='-1.039230 1.176000 0.720000 -1.172450 1.262668 0.372699 -0.699994 0.644685 0.165644 -0.692820 0.570667 0.320000'/>
				</IndexedFaceSet>
			</Shape>
			<Shape DEF='_IDX_163'>
				<Appearance USE='Material_20_IDX_20'/>
				<IndexedFaceSet solid="false" coordIndex='0 1 2 3 -1'>
					<Coordinate point='-1.385641 2.165333 1.280000 -1.791856 2.235422 0.662577 -1.172450 1.262668 0.372699 -1.039230 1.176000 0.720000'/>
				</IndexedFaceSet>
			</Shape>
			<Shape DEF='_IDX_164'>
				<Appearance USE='Material_21_IDX_21'/>
				<IndexedFaceSet solid="false" coordIndex='0 1 2 3 -1'>
					<Coordinate point='-0.325505 0.263214 0.041411 -0.297928 0.297928 0.000000 0.000000 0.000000 0.000000 0.000000 0.000000 0.000000'/>
				</IndexedFaceSet>
			</Shape>
			<Shape DEF='_IDX_165'>
				<Appearance USE='Material_22_IDX_22'/>
				<IndexedFaceSet solid="false" coordIndex='0 1 2 3 -1'>
					<Coordinate point='-0.699994 0.644685 0.165644 -0.686365 0.686365 0.000000 -0.297928 0.297928 0.000000 -0.325505 0.263214 0.041411'/>
				</IndexedFaceSet>
			</Shape>
			<Shape DEF='_IDX_166'>
				<Appearance USE='Material_23_IDX_23'/>
				<IndexedFaceSet solid="false" coordIndex='0 1 2 3 -1'>
					<Coordinate point='-1.172450 1.262668 0.372699 -1.255822 1.255822 0.000000 -0.686365 0.686365 0.000000 -0.699994 0.644685 0.165644'/>
				</IndexedFaceSet>
			</Shape>
			<Shape DEF='_IDX_167'>
				<Appearance USE='Material_24_IDX_24'/>
				<IndexedFaceSet solid="false" coordIndex='0 1 2 3 -1'>
					<Coordinate point='-1.791856 2.235422 0.662577 -2.096807 2.096807 0.000000 -1.255822 1.255822 0.000000 -1.172450 1.262668 0.372699'/>
				</IndexedFaceSet>
			</Shape>
			<Shape DEF='_IDX_168'>
				<Appearance USE='Material_25_IDX_25'/>
				<IndexedFaceSet solid="false" coordIndex='0 1 2 3 -1'>
					<Coordinate point='0.000000 0.624000 -1.440000 -0.377057 0.657579 -1.390933 -0.731332 0.324908 -2.472770 0.000000 0.234667 -2.560000'/>
				</IndexedFaceSet>
			</Shape>
			<Shape DEF='_IDX_169'>
				<Appearance USE='Material_26_IDX_26'/>
				<IndexedFaceSet solid="false" coordIndex='0 1 2 3 -1'>
					<Coordinate point='0.000000 0.629333 -0.640000 -0.169732 0.635480 -0.618193 -0.377057 0.657579 -1.390933 0.000000 0.624000 -1.440000'/>
				</IndexedFaceSet>
			</Shape>
			<Shape DEF='_IDX_170'>
				<Appearance USE='Material_27_IDX_27'/>
				<IndexedFaceSet solid="false" coordIndex='0 1 2 3 -1'>
					<Coordinate point='0.000000 0.378667 -0.160000 -0.060374 0.376869 -0.154548 -0.169732 0.635480 -0.618193 0.000000 0.629333 -0.640000'/>
				</IndexedFaceSet>
			</Shape>
			<Shape DEF='_IDX_171'>
				<Appearance USE='Material_28_IDX_28'/>
				<IndexedFaceSet solid="false" coordIndex='0 1 2 3 -1'>
					<Coordinate point='0.000000 0.000000 0.000000 0.000000 0.000000 0.000000 -0.060374 0.376869 -0.154548 0.000000 0.378667 -0.160000'/>
				</IndexedFaceSet>
			</Shape>
			<Shape DEF='_IDX_172'>
				<Appearance USE='Material_29_IDX_29'/>
				<IndexedFaceSet solid="false" coordIndex='0 1 2 3 -1'>
					<Coordinate point='-0.377057 0.657579 -1.390933 -0.717876 0.751817 -1.247077 -1.379547 0.580045 -2.217025 -0.731332 0.324908 -2.472770'/>
				</IndexedFaceSet>
			</Shape>
			<Shape DEF='_IDX_173'>
				<Appearance USE='Material_30_IDX_30'/>
				<IndexedFaceSet solid="false" coordIndex='0 1 2 3 -1'>
					<Coordinate point='-0.169732 0.635480 -0.618193 -0.327735 0.652061 -0.554256 -0.717876 0.751817 -1.247077 -0.377057 0.657579 -1.390933'/>
				</IndexedFaceSet>
			</Shape>
			<Shape DEF='_IDX_174'>
				<Appearance USE='Material_31_IDX_31'/>
				<IndexedFaceSet solid="false" coordIndex='0 1 2 3 -1'>
					<Coordinate point='-0.060374 0.376869 -0.154548 -0.118613 0.371285 -0.138564 -0.327735 0.652061 -0.554256 -0.169732 0.635480 -0.618193'/>
				</IndexedFaceSet>
			</Shape>
			<Shape DEF='_IDX_175'>
				<Appearance USE='Material_32_IDX_32'/>
				<IndexedFaceSet solid="false" coordIndex='0 1 2 3 -1'>
					<Coordinate point='0.000000 0.000000 0.000000 0.000000 0.000000 0.000000 -0.118613 0.371285 -0.138564 -0.060374 0.376869 -0.154548'/>
				</IndexedFaceSet>
			</Shape>
			<Shape DEF='_IDX_176'>
				<Appearance USE='Material_33_IDX_33'/>
				<IndexedFaceSet solid="false" coordIndex='0 1 2 3 -1'>
					<Coordinate point='-0.717876 0.751817 -1.247077 -0.991375 0.888230 -1.018234 -1.873697 0.955717 -1.810193 -1.379547 0.580045 -2.217025'/>
				</IndexedFaceSet>
			</Shape>
			<Shape DEF='_IDX_177'>
				<Appearance USE='Material_34_IDX_34'/>
				<IndexedFaceSet solid="false" coordIndex='0 1 2 3 -1'>
					<Coordinate point='-0.327735 0.652061 -0.554256 -0.463822 0.673792 -0.452548 -0.991375 0.888230 -1.018234 -0.717876 0.751817 -1.247077'/>
				</IndexedFaceSet>
			</Shape>
			<Shape DEF='_IDX_178'>
				<Appearance USE='Material_35_IDX_35'/>
				<IndexedFaceSet solid="false" coordIndex='0 1 2 3 -1'>
					<Coordinate point='-0.118613 0.371285 -0.138564 -0.172783 0.361388 -0.113137 -0.463822 0.673792 -0.452548 -0.327735 0.652061 -0.554256'/>
				</IndexedFaceSet>
			</Shape>
			<Shape DEF='_IDX_179'>
				<Appearance USE='Material_36_IDX_36'/>
				<IndexedFaceSet solid="false" coordIndex='0 1 2 3 -1'>
					<Coordinate point='0.000000 0.000000 0.000000 0.000000 0.000000 0.000000 -0.172783 0.361388 -0.113137 -0.118613 0.371285 -0.138564'/>
				</IndexedFaceSet>
			</Shape>
			<Shape DEF='_IDX_180'>
				<Appearance USE='Material_37_IDX_37'/>
				<IndexedFaceSet solid="false" coordIndex='0 1 2 3 -1'>
					<Coordinate point='-0.991375 0.888230 -1.018234 -1.176000 1.039230 -0.720000 -2.165333 1.385641 -1.280000 -1.873697 0.955717 -1.810193'/>
				</IndexedFaceSet>
			</Shape>
			<Shape DEF='_IDX_181'>
				<Appearance USE='Material_38_IDX_38'/>
				<IndexedFaceSet solid="false" coordIndex='0 1 2 3 -1'>
					<Coordinate point='-0.463822 0.673792 -0.452548 -0.570667 0.692820 -0.320000 -1.176000 1.039230 -0.720000 -0.991375 0.888230 -1.018234'/>
				</IndexedFaceSet>
			</Shape>
			<Shape DEF='_IDX_182'>
				<Appearance USE='Material_39_IDX_39'/>
				<IndexedFaceSet solid="false" coordIndex='0 1 2 3 -1'>
					<Coordinate point='-0.172783 0.361388 -0.113137 -0.221333 0.346410 -0.080000 -0.570667 0.692820 -0.320000 -0.463822 0.673792 -0.452548'/>
				</IndexedFaceSet>
			</Shape>
			<Shape DEF='_IDX_183'>
				<Appearance USE='Material_40_IDX_40'/>
				<IndexedFaceSet solid="false" coordIndex='0 1 2 3 -1'>
					<Coordinate point='0.000000 0.000000 0.000000 0.000000 0.000000 0.000000 -0.221333 0.346410 -0.080000 -0.172783 0.361388 -0.113137'/>
				</IndexedFaceSet>
			</Shape>
			<Shape DEF='_IDX_184'>
				<Appearance USE='Material_41_IDX_41'/>
				<IndexedFaceSet solid="false" coordIndex='0 1 2 3 -1'>
					<Coordinate point='-1.176000 1.039230 -0.720000 -1.262668 1.172450 -0.372699 -2.235422 1.791856 -0.662577 -2.165333 1.385641 -1.280000'/>
				</IndexedFaceSet>
			</Shape>
			<Shape DEF='_IDX_185'>
				<Appearance USE='Material_42_IDX_42'/>
				<IndexedFaceSet solid="false" coordIndex='0 1 2 3 -1'>
					<Coordinate point='-0.570667 0.692820 -0.320000 -0.644685 0.699994 -0.165644 -1.262668 1.172450 -0.372699 -1.176000 1.039230 -0.720000'/>
				</IndexedFaceSet>
			</Shape>
			<Shape DEF='_IDX_186'>
				<Appearance USE='Material_43_IDX_43'/>
				<IndexedFaceSet solid="false" coordIndex='0 1 2 3 -1'>
					<Coordinate point='-0.221333 0.346410 -0.080000 -0.263214 0.325505 -0.041411 -0.644685 0.699994 -0.165644 -0.570667 0.692820 -0.320000'/>
				</IndexedFaceSet>
			</Shape>
			<Shape DEF='_IDX_187'>
				<Appearance USE='Material_44_IDX_44'/>
				<IndexedFaceSet solid="false" coordIndex='0 1 2 3 -1'>
					<Coordinate point='0.000000 0.000000 0.000000 0.000000 0.000000 0.000000 -0.263214 0.325505 -0.041411 -0.221333 0.346410 -0.080000'/>
				</IndexedFaceSet>
			</Shape>
			<Shape DEF='_IDX_188'>
				<Appearance USE='Material_45_IDX_45'/>
				<IndexedFaceSet solid="false" coordIndex='0 1 2 3 -1'>
					<Coordinate point='-1.262668 1.172450 -0.372699 -1.255822 1.255822 -0.000000 -2.096807 2.096807 -0.000000 -2.235422 1.791856 -0.662577'/>
				</IndexedFaceSet>
			</Shape>
			<Shape DEF='_IDX_189'>
				<Appearance USE='Material_46_IDX_46'/>
				<IndexedFaceSet solid="false" coordIndex='0 1 2 3 -1'>
					<Coordinate point='-0.644685 0.699994 -0.165644 -0.686365 0.686365 -0.000000 -1.255822 1.255822 -0.000000 -1.262668 1.172450 -0.372699'/>
				</IndexedFaceSet>
			</Shape>
			<Shape DEF='_IDX_190'>
				<Appearance USE='Material_47_IDX_47'/>
				<IndexedFaceSet solid="false" coordIndex='0 1 2 3 -1'>
					<Coordinate point='-0.263214 0.325505 -0.041411 -0.297928 0.297928 -0.000000 -0.686365 0.686365 -0.000000 -0.644685 0.699994 -0.165644'/>
				</IndexedFaceSet>
			</Shape>
			<Shape DEF='_IDX_191'>
				<Appearance USE='Material_48_IDX_48'/>
				<IndexedFaceSet solid="false" coordIndex='0 1 2 3 -1'>
					<Coordinate point='0.000000 0.000000 0.000000 0.000000 0.000000 0.000000 -0.297928 0.297928 -0.000000 -0.263214 0.325505 -0.041411'/>
				</IndexedFaceSet>
			</Shape>
		</Group>
	</Scene>
</X3D>
